<?xml version="1.0" encoding="utf-8"?>
<!-- Generator: Adobe Illustrator 24.1.2, SVG Export Plug-In . SVG Version: 6.00 Build 0)  -->
<svg version="1.1" id="Layer_1" xmlns="http://www.w3.org/2000/svg" xmlns:xlink="http://www.w3.org/1999/xlink" x="0px" y="0px"
	 viewBox="0 0 1162.6 1000" style="enable-background:new 0 0 1162.6 1000;" xml:space="preserve">
<style type="text/css">
	.st0{fill-rule:evenodd;clip-rule:evenodd;fill:#0070AF;}
	.st1{fill-rule:evenodd;clip-rule:evenodd;fill:#F6822A;}
</style>
<g id="layer1" transform="translate(-284.78446,-475.51214)">
	<g id="g2995" transform="matrix(1.25,0,0,-1.25,15.493106,1024.9702)">
		<g id="g2997" transform="scale(0.24,0.24)">
			<path id="path3001" class="st0" d="M2120.5,305.2l-95.4-237.6h132L2121,306.1L2120.5,305.2L2120.5,305.2z M1615.4-240.4
				L2006.5,565h295.8l164.9-805.4h-259.6L2188.4-133h-251.9l-57.9-107.3H1615.4z M2590.1-240.4L2703.4,565h261.6l-113.3-805.4
				H2590.1z M4330.2,306.1l-95.7-238.6h131.9L4330.2,306.1z M3824.6-240.4L4215.8,565h295.7l165-805.4h-259.7L4397.7-133h-251.9
				l-57.9-107.3H3824.6"/>
			<path id="path3003" class="st0" d="M3246.2,136.2h327.8l224.6-372h-327.9L3246.2,136.2"/>
			<path id="path3005" class="st1" d="M3280.3,193.4h338.9l294.3,370.5h-338.9L3280.3,193.4"/>
			<path id="path3007" class="st1" d="M2941.5-238.1h338.8l294.3,375h-338.9L2941.5-238.1"/>
			<path id="path3009" class="st0" d="M3063.7,568.4h316.2l216.7-375h-316.3L3063.7,568.4"/>
			<path id="path3011" class="st0" d="M1623.1,536.2l-25.2-236.9c-96.4,133-319.9,41.2-337.5-124.5
				c-22.3-210.3,192.8-259.4,309.9-135.5l-25.2-237.4c-34.9-17.1-69.1-30.5-102.8-39.5c-33.5-9-67.2-13.8-100.5-14.5
				c-41.9-0.9-79.9,3.5-114.1,13.1c-34.2,9.5-65.2,24.5-92.6,44.8c-52.9,38.6-91.1,87.8-114.6,147.6c-23.5,60-31.3,127.7-23.3,203.3
				c6.5,60.8,21.8,116.2,46.2,166.5c24.2,50.2,57.7,95.9,100.4,137.3c40.3,39.5,84.3,69.2,131.8,89.4c47.4,20.1,99,30.7,154.9,31.9
				c33.4,0.7,66.1-2.6,97.9-10.3C1560.2,563.9,1591.7,552,1623.1,536.2"/>
		</g>
	</g>
	<g id="g3013" transform="matrix(1.25,0,0,-1.25,15.493106,1024.9702)">
	</g>
</g>
</svg>
